<svg xmlns="http://www.w3.org/2000/svg" viewBox="-12 -10 48 48">
  <g transform="rotate(180, 12, 14)">
    <path
      fill="currentColor"
      d="M11.47 5.22a.75.75 0 0 1 1.06 0l3.25 3.25a.75.75 0 0 1-.018 1.042a.75.75 0 0 1-1.042.018L12 6.81L9.28 9.53a.75.75 0 0 1-1.042-.018a.75.75 0 0 1-.018-1.042Z"
    />
    <path
      fill="currentColor"
      d="M12 5.5a.75.75 0 0 1 .75.75v8a.75.75 0 0 1-1.5 0v-8A.75.75 0 0 1 12 5.5M2.75 18a.75.75 0 0 1 .75-.75h1a.75.75 0 0 1 0 1.5h-1a.75.75 0 0 1-.75-.75m4 0a.75.75 0 0 1 .75-.75h1a.75.75 0 0 1 0 1.5h-1a.75.75 0 0 1-.75-.75m4 0a.75.75 0 0 1 .75-.75h1a.75.75 0 0 1 0 1.5h-1a.75.75 0 0 1-.75-.75m4 0a.75.75 0 0 1 .75-.75h1a.75.75 0 0 1 0 1.5h-1a.75.75 0 0 1-.75-.75m4 0a.75.75 0 0 1 .75-.75h1a.75.75 0 0 1 0 1.5h-1a.75.75 0 0 1-.75-.75"
    />
  </g>
</svg>
