<?xml version="1.0" encoding="utf-8"?>
<!-- Generator: Adobe Illustrator 22.0.1, SVG Export Plug-In . SVG Version: 6.00 Build 0)  -->
<svg version="1.1" id="Layer_1" xmlns="http://www.w3.org/2000/svg" xmlns:xlink="http://www.w3.org/1999/xlink" x="0px" y="0px"
	 viewBox="0 0 81.6 93" style="enable-background:new 0 0 81.6 93; height: 40px;" xml:space="preserve">
<style type="text/css">
	.st0{fill:#A0E0C5;}
	.st1{fill:#FFFFFF;}
</style>
<g>
	<g>
		<path class="st0" d="M35.3,17.3c5.9,1.2,11,5.5,13.2,11c1.3,3.2,1.8,6.9,4.3,9.2c2,1.8,4.9,2.3,7.5,1.6c2.6-0.7,4.7-2.5,6.3-4.7
			c3.6-5.2,3.2-12.5,0-17.9c-3.2-5.4-9-9-15.2-10.6C41.3,3.3,29.8,6.4,22.7,14c-1.4,1.5-2.6,3.2-3.6,5c-0.6,1,0.6,2.2,1.6,1.6
			C24.9,18.4,30.9,16.4,35.3,17.3"/>
		<path class="st1" d="M74,54.9c-4.3-5.9-11.3-5.4-17.1-3.4c-4.4,1.5-8.5,3.8-13,4.7C33.6,58.3,22.5,52.4,18,43.1
			c-2.3-4.8-2.9-10.4-1.9-15.6c0.2-1.2-1.3-1.9-2.1-1c-6.7,8.3-9.9,19.4-8.2,30C8,69.8,17.9,81.5,30.7,85.9
			c12.7,4.4,27.8,1.3,37.7-7.8c4.7-4.3,8.4-10.2,7.9-16.9C76.1,59,75.3,56.8,74,54.9"/>
	</g>
</g>
</svg>
